<svg width="29" height="28" viewBox="0 0 29 28" fill="none" xmlns="http://www.w3.org/2000/svg">
<path d="M26.2166 19.1926H9.8222L10.6454 17.5273L24.3225 17.5027C24.785 17.5027 25.1815 17.1746 25.264 16.7207L27.1581 6.19062C27.2077 5.91445 27.1334 5.63008 26.9517 5.41406C26.8619 5.30775 26.7499 5.22211 26.6234 5.16309C26.4969 5.10407 26.3591 5.07308 26.2194 5.07227L8.8201 5.01484L8.67143 4.32031C8.57783 3.87734 8.17588 3.55469 7.71888 3.55469H3.46542C3.20767 3.55469 2.96049 3.65638 2.77823 3.8374C2.59598 4.01841 2.49359 4.26393 2.49359 4.51992C2.49359 4.77592 2.59598 5.02143 2.77823 5.20245C2.96049 5.38346 3.20767 5.48516 3.46542 5.48516H6.9315L7.58122 8.55312L9.18074 16.2449L7.12146 19.5836C7.01452 19.727 6.95011 19.8972 6.93551 20.075C6.92092 20.2528 6.95672 20.4312 7.03887 20.5898C7.20406 20.9152 7.53717 21.1203 7.90608 21.1203H9.635C9.26642 21.6065 9.06733 22.1988 9.06787 22.8074C9.06787 24.3551 10.3343 25.6129 11.8925 25.6129C13.4507 25.6129 14.7171 24.3551 14.7171 22.8074C14.7171 22.1977 14.5134 21.6043 14.15 21.1203H18.5852C18.2166 21.6065 18.0175 22.1988 18.018 22.8074C18.018 24.3551 19.2844 25.6129 20.8427 25.6129C22.4009 25.6129 23.6673 24.3551 23.6673 22.8074C23.6673 22.1977 23.4636 21.6043 23.1002 21.1203H26.2194C26.7534 21.1203 27.1912 20.6883 27.1912 20.1551C27.1896 19.8994 27.0862 19.6546 26.9036 19.4743C26.7211 19.294 26.4741 19.1927 26.2166 19.1926ZM9.22479 6.91797L25.0768 6.96992L23.5241 15.6051L11.0721 15.627L9.22479 6.91797ZM11.8925 23.6715C11.4135 23.6715 11.0225 23.2832 11.0225 22.8074C11.0225 22.3316 11.4135 21.9434 11.8925 21.9434C12.3715 21.9434 12.7625 22.3316 12.7625 22.8074C12.7625 23.0366 12.6708 23.2564 12.5077 23.4184C12.3445 23.5805 12.1232 23.6715 11.8925 23.6715ZM20.8427 23.6715C20.3636 23.6715 19.9727 23.2832 19.9727 22.8074C19.9727 22.3316 20.3636 21.9434 20.8427 21.9434C21.3217 21.9434 21.7126 22.3316 21.7126 22.8074C21.7126 23.0366 21.621 23.2564 21.4578 23.4184C21.2947 23.5805 21.0734 23.6715 20.8427 23.6715Z" fill="black"/>
</svg>
