<svg width="25" height="20" viewBox="0 0 25 20" fill="none" xmlns="http://www.w3.org/2000/svg">
<path d="M21.8059 9.99996V4.16663H24.1552V11.1666H21.8059M21.8059 15.8333H24.1552V13.5H21.8059M10.0595 11.1666C13.1958 11.1666 19.4566 12.73 19.4566 15.8333V19.3333H0.662476V15.8333C0.662476 12.73 6.92327 11.1666 10.0595 11.1666ZM10.0595 0.666626C11.3057 0.666626 12.5008 1.15829 13.3819 2.03346C14.2631 2.90863 14.7581 4.09562 14.7581 5.33329C14.7581 6.57097 14.2631 7.75795 13.3819 8.63312C12.5008 9.50829 11.3057 9.99996 10.0595 9.99996C8.81342 9.99996 7.61833 9.50829 6.73718 8.63312C5.85603 7.75795 5.36101 6.57097 5.36101 5.33329C5.36101 4.09562 5.85603 2.90863 6.73718 2.03346C7.61833 1.15829 8.81342 0.666626 10.0595 0.666626ZM10.0595 13.3833C6.57088 13.3833 2.89428 15.0866 2.89428 15.8333V17.1166H17.2248V15.8333C17.2248 15.0866 13.5482 13.3833 10.0595 13.3833ZM10.0595 2.88329C9.40533 2.88329 8.77791 3.14142 8.3153 3.60088C7.8527 4.06034 7.59282 4.68351 7.59282 5.33329C7.59282 5.98307 7.8527 6.60624 8.3153 7.0657C8.77791 7.52517 9.40533 7.78329 10.0595 7.78329C10.7138 7.78329 11.3412 7.52517 11.8038 7.0657C12.2664 6.60624 12.5263 5.98307 12.5263 5.33329C12.5263 4.68351 12.2664 4.06034 11.8038 3.60088C11.3412 3.14142 10.7138 2.88329 10.0595 2.88329Z" fill="black"/>
</svg>
